<svg xmlns="http://www.w3.org/2000/svg" viewBox="0 0 512 512">
  <rect width="512" height="512" rx="132" fill="#c9f34b"/>
  <g fill="#15180e">
    <path d="M226 62c0-17 13-30 30-30s30 13 30 30v133c0 17-13 30-30 30s-30-13-30-30z" rx="30"/>
    <path d="M450 226c17 0 30 13 30 30s-13 30-30 30H317c-17 0-30-13-30-30s13-30 30-30z"/>
    <path d="M286 450c0 17-13 30-30 30s-30-13-30-30V317c0-17 13-30 30-30s30 13 30 30z"/>
    <path d="M62 286c-17 0-30-13-30-30s13-30 30-30h133c17 0 30 13 30 30s-13 30-30 30z"/>
    <circle cx="256" cy="256" r="54"/>
  </g>
</svg>
